<?xml version="1.0" encoding="UTF-8"?>
<svg version="1.1" xmlns="http://www.w3.org/2000/svg" width="500" height="500">
<path d="M0 0 C165 0 330 0 500 0 C500 165 500 330 500 500 C335 500 170 500 0 500 C0 335 0 170 0 0 Z " fill="#FEFEFE" transform="translate(0,0)"/>
<path d="M0 0 C1.12426392 0.00737183 1.12426392 0.00737183 2.27124023 0.01489258 C13.59882068 0.25475339 22.16888167 4.92660914 30.625 12.3125 C32.609375 14.96875 32.609375 14.96875 34.375 17.8125 C34.96796875 18.7509375 35.5609375 19.689375 36.171875 20.65625 C37.42778329 22.95199634 38.16734628 24.759274 38.625 27.3125 C42.53544605 24.37966546 45.38176873 21.42174143 48.3125 17.5 C55.71955713 8.06900315 65.51390666 1.5323234 77.57177734 0.07763672 C90.40871992 -1.01209191 102.58310428 1.16115446 113.125 9 C123.19415365 17.93177417 128.44268311 28.98300594 129.625 42.3125 C129.75465503 45.70664976 129.75186062 49.09590637 129.73852539 52.4921875 C129.73867142 53.47846634 129.73881744 54.46474518 129.7389679 55.48091125 C129.73827542 58.7164638 129.73051432 61.95195761 129.72265625 65.1875 C129.72078971 67.44051075 129.71936692 69.6935219 129.71836853 71.9465332 C129.71456197 77.85822686 129.70474765 83.7698957 129.69366455 89.68157959 C129.68341034 95.72131006 129.67886233 101.76104457 129.67382812 107.80078125 C129.66312364 119.6380317 129.64606967 131.47526378 129.625 143.3125 C126.2513108 143.33259637 122.87763719 143.34472749 119.50390625 143.35546875 C118.07769958 143.3641095 118.07769958 143.3641095 116.62268066 143.3729248 C100.94135689 143.41036665 87.06395567 139.6129216 75.625 128.3125 C65.6827159 116.85073474 64.6822199 104.50926035 64.4140625 89.890625 C64.39969147 89.13672485 64.38532043 88.38282471 64.37051392 87.6060791 C64.31306518 84.46058489 64.25829416 81.31527142 64.22363281 78.16943359 C64.19595529 75.84690799 64.15014649 73.52529507 64.1015625 71.203125 C64.0966832 70.14825897 64.0966832 70.14825897 64.09170532 69.07208252 C63.97723907 64.45655264 63.06056923 61.23535439 60.625 57.3125 C57.78416359 55.89208179 55.77022722 55.99797728 52.625 56.3125 C48.85078628 59.03832102 47.8376331 61.91673828 46.625 66.3125 C46.34533426 69.60848797 46.34533426 69.60848797 46.41381836 73.10888672 C46.4151326 73.76015533 46.41644684 74.41142395 46.4178009 75.08242798 C46.42425146 77.2191667 46.4446703 79.35553831 46.46484375 81.4921875 C46.4711232 82.98901989 46.47636028 84.48585699 46.48060608 85.98269653 C46.49387306 89.91534114 46.51827942 93.84782877 46.54595947 97.78039551 C46.58915446 104.06646183 46.61894406 110.35256745 46.6420002 116.63873672 C46.65214021 118.82333678 46.66920098 121.007803 46.68699646 123.19235229 C46.76563277 136.01294956 46.76563277 136.01294956 45.625 142.3125 C43.34620428 144.59129572 37.98943949 143.55358923 34.9375 143.5625 C21.74984133 143.54689198 10.60986839 142.24035492 -0.375 134.3125 C-1.426875 133.590625 -2.47875 132.86875 -3.5625 132.125 C-14.88825672 120.79924328 -18.4351171 107.12469047 -18.5859375 91.6484375 C-18.61398095 90.01561454 -18.64264519 88.38280215 -18.671875 86.75 C-18.71320327 84.21126325 -18.7501525 81.67272964 -18.77636719 79.13378906 C-18.80404391 76.65910847 -18.84987411 74.1852848 -18.8984375 71.7109375 C-18.90169037 70.95767181 -18.90494324 70.20440613 -18.90829468 69.42831421 C-19.01844918 64.67747451 -19.84059933 61.34411318 -22.375 57.3125 C-25.22824437 55.88587781 -27.20954549 56.00216132 -30.375 56.3125 C-34.87030804 58.96881839 -36.07046547 61.36334599 -37.375 66.3125 C-37.57501087 68.93030807 -37.68575507 71.44550368 -37.69384766 74.06201172 C-37.70389328 74.81391281 -37.7139389 75.5658139 -37.72428894 76.34049988 C-37.75499955 78.80772183 -37.77212202 81.27483587 -37.7890625 83.7421875 C-37.80778393 85.45998047 -37.82735807 87.17776435 -37.8477478 88.89553833 C-37.89897207 93.40322492 -37.9386496 97.9109413 -37.97589111 102.41876221 C-38.01599175 107.02404082 -38.0670564 111.62919658 -38.1171875 116.234375 C-38.2138318 125.26033024 -38.29827323 134.28635501 -38.375 143.3125 C-42.38667774 143.36002206 -46.39828215 143.3886806 -50.41015625 143.4140625 C-51.54022095 143.42767822 -52.67028564 143.44129395 -53.83459473 143.45532227 C-68.53397019 143.5250511 -80.19966729 139.25701498 -91.125 129.1875 C-105.826059 113.67983422 -104.55235978 91.72477836 -104.50537109 71.76904297 C-104.500038 69.0816476 -104.50533073 66.39442138 -104.51171875 63.70703125 C-104.51534008 53.20081725 -104.18558954 42.78923126 -103.375 32.3125 C-99.72859808 34.32174187 -96.33604751 36.30292696 -93.0625 38.875 C-85.46037518 44.34852987 -76.49728021 45.20247856 -67.375 44.3125 C-53.99722416 41.74807013 -44.86046603 32.01853947 -37.4375 21.3125 C-28.30200519 8.18988908 -16.45892142 -0.1276746 0 0 Z " fill="#343434" transform="translate(132.375,179.6875)"/>
<path d="M0 0 C12.63339315 2.66838972 22.42702762 9.62222304 30 20 C30 20.66 30 21.32 30 22 C30.99 22 31.98 22 33 22 C33.38285156 20.88625 33.38285156 20.88625 33.7734375 19.75 C37.81274941 10.69370832 47.62949577 5.12781718 56.5 1.6875 C67.41941962 -1.67232142 78.54468461 -1.30126559 89.03125 3.33203125 C98.05786704 8.40356477 104.27975702 15.85648296 109 25 C109 25.66 109 26.32 109 27 C109.99 27 110.98 27 112 27 C112.25394531 26.44054687 112.50789062 25.88109375 112.76953125 25.3046875 C119.55504513 12.5953123 130.19494503 5.00346964 143.56494141 0.6394043 C147.46876312 -0.38567181 151.22938148 -0.53281968 155.25 -0.5 C156.07483887 -0.49427979 156.89967773 -0.48855957 157.74951172 -0.48266602 C169.16055143 -0.15279656 178.8084659 4.03289149 187 12 C197.67882086 23.40064971 200.33855193 37.19939615 200.24291992 52.41259766 C200.24481827 53.38795471 200.24671661 54.36331177 200.24867249 55.3682251 C200.25233874 58.55025606 200.24174197 61.73205231 200.23046875 64.9140625 C200.22927526 67.1379697 200.22882415 69.36187741 200.2290802 71.58578491 C200.22752292 76.22372639 200.21928607 80.86158985 200.20581055 85.49951172 C200.18872237 91.45724873 200.18499943 97.41490102 200.18575573 103.37265968 C200.18548468 107.95353002 200.18001553 112.53438167 200.17275429 117.11524582 C200.16956489 119.31379429 200.16759958 121.51234488 200.16686058 123.71089554 C200.1647055 126.7677502 200.15598236 129.82451264 200.14526367 132.88134766 C200.14571686 133.79554474 200.14617004 134.70974182 200.14663696 135.65164185 C200.11448363 141.88551637 200.11448363 141.88551637 199 143 C179.97848628 144.59539536 163.97916221 142.865132 148.9375 130.2734375 C147.16087956 128.59636907 145.56792433 126.87245556 144 125 C143.53980469 124.46503906 143.07960938 123.93007813 142.60546875 123.37890625 C133.87744935 111.53938748 134.42796302 94.23938988 134.4375 80.25 C134.43387514 77.70486818 134.42429604 75.16040849 134.39674377 72.61541748 C134.38011714 71.05174275 134.37695082 69.48784401 134.38975525 67.9241333 C134.34604825 63.44421388 133.78022723 60.55780945 131 57 C128.11138291 55.55569145 126.20352299 55.62311494 123 56 C119.89835231 58.55024365 118.27433584 60.17699247 117 64 C116.88044119 66.5389383 116.81476036 69.05257824 116.79467773 71.5925293 C116.78477814 72.36349945 116.77487854 73.1344696 116.76467896 73.92880249 C116.73309044 76.47724333 116.708317 79.02570282 116.68359375 81.57421875 C116.66302194 83.3411355 116.6420254 85.10804736 116.62062073 86.87495422 C116.56542355 91.52572667 116.51600388 96.17654336 116.46777344 100.82739258 C116.41754124 105.57311949 116.36186414 110.31878214 116.30664062 115.06445312 C116.19908784 124.37624719 116.09763644 133.68809705 116 143 C112.307313 143.03289311 108.61466417 143.05273842 104.921875 143.0703125 C103.36122314 143.0844519 103.36122314 143.0844519 101.76904297 143.09887695 C87.97688415 143.1480956 75.97307471 139.91102369 65.6875 130.25 C55.26940736 119.04201099 51.93383413 106.39149831 51.7890625 91.43359375 C51.76101303 89.79751571 51.73234872 88.16144811 51.703125 86.52539062 C51.661822 83.97566821 51.62488311 81.42614521 51.59863281 78.8762207 C51.57094911 76.39494988 51.52511021 73.91453258 51.4765625 71.43359375 C51.47330963 70.67719101 51.47005676 69.92078827 51.46670532 69.14146423 C51.35682517 64.38104869 50.54142624 61.03928856 48 57 C45.14675563 55.57337781 43.16545451 55.68966132 40 56 C35.50469196 58.65631839 34.30453453 61.05084599 33 66 C32.79998913 68.61780807 32.68924493 71.13300368 32.68115234 73.74951172 C32.66608391 74.87736336 32.66608391 74.87736336 32.65071106 76.02799988 C32.62000045 78.49522183 32.60287798 80.96233587 32.5859375 83.4296875 C32.56721607 85.14748047 32.54764193 86.86526435 32.5272522 88.58303833 C32.47602793 93.09072492 32.4363504 97.5984413 32.39910889 102.10626221 C32.35900825 106.71154082 32.3079436 111.31669658 32.2578125 115.921875 C32.16116811 124.94783874 32.07774077 133.97385362 32 143 C24.41 143 16.82 143 9 143 C8.97812622 138.21653076 8.97812622 138.21653076 8.95581055 133.33642578 C8.90538762 122.77916013 8.8387788 112.22204077 8.76428509 101.6649189 C8.71963048 95.26653436 8.68036332 88.86821278 8.65356445 82.46972656 C8.62748283 76.29043553 8.58704552 70.1113874 8.53681374 63.93224716 C8.52017796 61.5792837 8.50864327 59.22627826 8.50238609 56.87326431 C8.49270942 53.56775935 8.46460655 50.26287123 8.43237305 46.95751953 C8.43452568 45.51065514 8.43452568 45.51065514 8.4367218 44.03456116 C8.27981574 32.59573141 4.69193935 21.60980102 -3 13 C-5.32858 11.09713799 -7.77116002 9.38792377 -10.25 7.6875 C-11.22453125 7.0059082 -11.22453125 7.0059082 -12.21875 6.31054688 C-13.80792899 5.20045861 -15.40334173 4.09930349 -17 3 C-13.09592333 -2.23785375 -5.81375788 -0.53563608 0 0 Z " fill="#343434" transform="translate(271,180)"/>
<path d="M0 0 C0.74620605 0.00829834 1.49241211 0.01659668 2.26123047 0.02514648 C10.43075807 0.27418502 16.61023468 2.17155794 22.625 7.875 C29.71049742 15.6940548 30.15303413 23.30308661 29.96484375 33.48046875 C29.60597578 38.60065543 28.50617576 42.18306127 25.6875 46.4375 C25.275 47.07042969 24.8625 47.70335937 24.4375 48.35546875 C20.58548914 53.48783549 15.86366881 56.71091094 9.6875 58.4375 C0.96867763 59.65489979 -8.4955203 59.82722075 -16.19921875 55.1171875 C-22.34751388 50.23037252 -27.97626218 44.40353316 -29.3125 36.4375 C-30.23007909 27.13658471 -30.11402577 19.08313025 -24.3125 11.4375 C-17.37536802 3.86500453 -10.34666391 -0.14854469 0 0 Z " fill="#8DC63F" transform="translate(58.3125,156.5625)"/>
</svg>
